# xmcd
#
# Track frame offsets: 
#        150
#        11872
#        28267
#        41700
#        53990
#        64575
#        79337
#        87845
#        98945
#        109825
#        121525
#        134232
#        153975
#        169210
#        185877
#
# Disc length: 2671 seconds
#
# Revision: 11
# Processed by: cddbd v1.5.2PL0 Copyright (c) Steve Scherf et al.
# Submitted via: ExactAudioCopyFreeDBPlugin 1.0
#
DISCID=d40a6d0f
DTITLE=Various Artist - Classic Country - 1975-1979 - CD2
DYEAR=1999
DGENRE=Country
TTITLE0=Crystal Gayle - Don't Make My Brown Eyes Blue
TTITLE1=Charlie Daniels Band - Devil Went Down To Georgia
TTITLE2=Dolly Parton - Here You Come Again
TTITLE3=Freddy Fender - Wasted Days and Wasted Nights
TTITLE4=George Jones and Johnny Paycheck - Mabelline
TTITLE5=Lynn Anderson - I Love How You Love Me
TTITLE6=Jerry Lee Lewis - Save The Last Dance For Me
TTITLE7=Ray Stevens - You Are So Beautiful
TTITLE8=Kendalls - Heaven's Just A Sin Away
TTITLE9=Marty Robbins - Among My Souvenirs
TTITLE10=Don Williams - You're My Best Friend
TTITLE11=Willie Nelson - Georgia On My Mind
TTITLE12=B.J. Thomas - (Hey Won't You Play) Another Somebody Done Some
TTITLE12=body Wrong Song
TTITLE13=Mary MacGregor - Torn Between Two Lovers
TTITLE14=Bellamy Brothers - Let Your Love Flow
EXTD=YEAR: 1999
EXTT0=
EXTT1=
EXTT2=
EXTT3=
EXTT4=
EXTT5=
EXTT6=
EXTT7=
EXTT8=
EXTT9=
EXTT10=
EXTT11=
EXTT12=
EXTT13=
EXTT14=
PLAYORDER=
